<svg xmlns="http://www.w3.org/2000/svg" width="42.667" height="42.667" viewBox="0 0 32 32" preserveAspectRatio="xMidYMid meet" xmlns:v="https://vecta.io/nano"><path d="M15.7 1.6C5.3 3.5 3.6 4.4 4.5 7.8c1 4 1.6 4.3 7.2 2.8 2.9-.8 7.5-1.7 10.3-2.1 4.1-.6 5-1.1 5-2.7C27 3.6 25.3 0 24.2.1c-.4 0-4.2.7-8.5 1.5zm3.3 9.8c-3 .7-8.5 2.3-12.3 3.5C.2 17.1 0 17.3 0 20.5c0 1.9.4 3.7 1 4 .5.3 4.9-.7 9.7-2.4 4.9-1.6 11.6-3.5 15.1-4.2C30.6 17 32 16.4 32 15c0-5.3-2.4-5.9-13-3.6zm-.9 10.9c-7.8 2.3-8.7 3.2-7.7 7.2.8 3.1 1.7 3.1 12.6-.2 9.1-2.8 10-3.6 8.4-7.7-.8-2.1-4.3-1.9-13.3.7z"/></svg>