<svg xmlns="http://www.w3.org/2000/svg" width="168" height="21" fill="#2c2a29" fill-rule="evenodd" xmlns:v="https://vecta.io/nano"><path d="M3.694 7.043c.122.457.597.693 1.08.538 3.96-1.177 7.93-1.983 12.027-2.569.469-.061.726-.53.554-1l-.919-2.472c-.158-.418-.585-.693-1.022-.647-4.003.477-7.871 1.181-11.747 2.266a1.01 1.01 0 0 0-.687 1.184l.714 2.7m16.051.54c-.154-.443-.571-.739-.983-.687-6.267.772-12.37 2.269-18.157 4.743a1.09 1.09 0 0 0-.587 1.158L.59 15.69c.099.495.578.723 1.05.501 5.878-2.601 12.09-4.257 18.462-5.245.405-.064.612-.513.457-.975l-.815-2.389"/><path d="M19.727 14.04c-.155-.473-.609-.782-1.041-.696-3.913.82-7.738 1.809-11.527 3.067-.481.171-.751.66-.625 1.111l.758 2.688c.143.506.731.765 1.272.565 3.788-1.311 7.614-2.455 11.523-3.373.375-.088.559-.513.42-.951l-.78-2.412m14.941-1.058c0-1.301-.856-1.84-2.544-1.84h-2.015v3.681h1.99c1.637 0 2.569-.638 2.569-1.84zm-2.947-8.294a11.88 11.88 0 0 0-1.612.123v3.264h1.713c1.511 0 2.216-.614 2.216-1.669 0-1.006-.73-1.718-2.317-1.718zm7.077 8.466c0 2.871-2.972 4.785-6.347 4.785h-6.195V2.086c2.065-.294 3.627-.491 5.465-.491 3.4 0 6.12 1.546 6.12 4.245 0 1.546-.831 2.577-2.317 3.141 2.292.638 3.274 1.988 3.274 4.172h0zm8.874 1.644v-2.11h-.73c-1.712 0-3.274.368-3.274 1.521 0 .883.605 1.203 1.839 1.203.982 0 1.788-.295 2.166-.614zm3.702-4.589v6.454c-1.36 1.006-3.551 1.546-6.523 1.546-2.644 0-4.836-1.055-4.836-3.387 0-3.509 3.501-4.368 7.656-4.491-.075-1.521-.705-1.914-2.09-1.914-.73 0-2.669.319-2.921.319-.605 0-1.083-.368-1.486-1.448l-.302-.883c1.562-.564 3.098-.957 4.76-.957 3.627 0 5.742 1.325 5.742 4.761h0zm13.869-1.006v8.736h-3.778v-7.435c0-1.3-.881-1.963-2.418-1.963-.579 0-1.133.074-1.612.196v9.202h-3.803l.025-10.92c1.587-1.031 4.155-1.595 6.246-1.595 2.896 0 5.339 1.399 5.339 3.779m1.639 2.749c0-4.294 3.073-6.552 7.052-6.552 1.108 0 2.116.147 3.324.417-.151 1.227-.68 2.307-1.259 2.92-.428-.123-1.133-.221-1.536-.221-2.544 0-3.576 1.276-3.576 3.215 0 1.963.957 3.166 3.349 3.166.655 0 1.41-.123 2.342-.442l.68 2.945c-1.385.54-2.821.785-3.954.785-3.878 0-6.422-2.258-6.422-6.233m20.45-.172c0-2.012-1.007-3.19-2.77-3.19-1.713 0-2.77 1.178-2.77 3.19 0 2.11 1.033 3.214 2.77 3.214 1.763 0 2.77-1.104 2.77-3.214zm-9.343 0c0-3.926 2.72-6.38 6.573-6.38 4.004 0 6.573 2.552 6.573 6.38 0 3.951-2.594 6.405-6.573 6.405-4.004 0-6.573-2.527-6.573-6.405h0zm15.287-9.595c.881-.638 2.796-1.178 3.803-1.178v16.932h-3.803V2.184m15.287 9.595c0-2.012-1.007-3.19-2.77-3.19-1.713 0-2.771 1.178-2.771 3.19 0 2.11 1.033 3.214 2.771 3.214 1.763 0 2.77-1.104 2.77-3.214zm-9.343 0c0-3.926 2.72-6.38 6.573-6.38 4.004 0 6.573 2.552 6.573 6.38 0 3.951-2.594 6.405-6.573 6.405-4.005 0-6.573-2.527-6.573-6.405h0zm34.327-2.577v8.736h-3.753v-7.435c0-1.3-.856-1.963-2.367-1.963a5.33 5.33 0 0 0-1.939.368c.201.54.302 1.129.302 1.767v7.264h-3.753v-7.435c0-1.3-.856-1.963-2.367-1.963a6.58 6.58 0 0 0-1.612.196v9.202h-3.803l.026-10.92c1.511-1.031 3.878-1.595 5.868-1.595 1.586 0 2.946.515 3.928 1.35 1.285-.81 3.073-1.35 4.584-1.35 2.745 0 4.886 1.423 4.886 3.779m11.51 2.404c0-2.258-1.209-3.068-3.148-3.068-.781 0-1.411.147-1.965.393v6.159a13.71 13.71 0 0 0 1.94.147c2.216 0 3.173-1.669 3.173-3.632zm3.752-.467c0 4.466-2.719 7.043-7.152 7.043-2.166 0-4.256-.393-5.515-.957V2.184c.881-.638 2.82-1.178 3.802-1.178v5.816c1.084-.908 2.393-1.399 3.577-1.399 3.752 0 5.288 2.527 5.288 5.717h0zm2.142-5.373c.529-.221 1.184-.344 1.914-.344s1.36.123 1.889.344v12.171h-3.803V5.767zm-.051-3.877c0-1.031.882-1.889 1.939-1.889 1.083 0 1.965.834 1.965 1.889 0 1.006-.882 1.89-1.965 1.89-1.057 0-1.939-.834-1.939-1.89h0zm13.399 12.907v-2.11h-.731c-1.712 0-3.274.368-3.274 1.521 0 .883.605 1.203 1.839 1.203.982 0 1.788-.295 2.166-.614zM168 10.208v6.454c-1.36 1.006-3.551 1.546-6.523 1.546-2.645 0-4.836-1.055-4.836-3.387 0-3.509 3.501-4.368 7.657-4.491-.076-1.521-.706-1.914-2.091-1.914-.73 0-2.669.319-2.921.319-.605 0-1.083-.368-1.486-1.448l-.302-.883c1.561-.564 3.097-.957 4.76-.957 3.626 0 5.742 1.325 5.742 4.761h0z"/></svg>